<svg version="1.1" id="Layer_1" xmlns="http://www.w3.org/2000/svg" xmlns:xlink="http://www.w3.org/1999/xlink" x="0px" y="0px"
	 width="100%" viewBox="0 0 800 800" enable-background="new 0 0 800 800" xml:space="preserve">
<path fill="#000000" opacity="1.000000" stroke="none" 
	d="
M1.000000,671.000000 
	C1.000000,492.308411 1.000000,313.616852 1.247554,134.635010 
	C2.865555,135.572250 4.235311,134.836975 5.704689,134.488373 
	C8.783260,133.757919 12.077232,132.804413 15.052757,134.100372 
	C22.531054,137.357452 27.630732,134.153488 31.726051,128.344376 
	C36.046322,122.216179 41.687782,119.750168 49.206944,119.730438 
	C56.032864,119.712540 62.772327,121.531113 69.610336,120.397903 
	C81.625526,118.406731 92.820305,114.561218 102.376724,106.635109 
	C105.436172,104.097580 108.680031,101.547661 112.254692,99.909233 
	C123.857483,94.591171 135.610733,89.591812 147.400208,84.696541 
	C150.799896,83.284904 154.514313,82.437920 156.807526,79.368423 
	C159.439438,75.845558 163.007126,74.035797 166.929047,72.426254 
	C187.808594,63.857391 208.758911,55.412598 227.528366,42.552536 
	C229.362518,41.295864 231.565613,41.073616 233.666153,40.559364 
	C241.673080,38.599106 249.948654,39.502529 258.008636,38.282486 
	C289.516541,33.513119 321.262695,31.866951 353.060547,31.120150 
	C369.708893,30.729147 386.274261,33.064320 402.955322,33.058826 
	C441.588623,33.046104 480.236542,31.942150 518.855225,34.045036 
	C536.722168,35.017937 554.362549,37.032833 571.183777,43.697945 
	C585.785095,49.483463 600.883850,54.224918 616.409607,55.791225 
	C642.132263,58.386238 665.676697,66.514008 687.391602,80.078339 
	C695.615723,85.215561 704.983887,87.887764 713.039673,93.281158 
	C715.903809,95.198685 719.447205,96.232681 723.041443,96.016769 
	C731.326050,95.519073 737.916992,98.404251 744.282288,103.930946 
	C755.678040,113.825401 769.103516,121.246460 779.385132,132.608612 
	C783.329468,136.967514 788.945496,137.782272 794.580078,137.506317 
	C796.778137,137.398621 798.889526,137.433640 801.000000,138.000000 
	C801.000000,302.691559 801.000000,467.383148 800.792603,632.296265 
	C799.464539,630.614624 797.835571,629.156982 795.687500,630.352234 
	C791.848511,632.488281 788.169678,631.121277 784.535522,630.234070 
	C780.518066,629.253357 776.524353,628.953430 772.726196,630.429504 
	C762.280762,634.488892 750.823486,634.605591 740.448242,638.978210 
	C737.587891,640.183716 734.309021,640.723206 731.181946,640.916260 
	C710.068604,642.219604 693.365601,653.160339 677.864258,665.998596 
	C670.304077,672.259888 663.389954,678.674683 653.913330,682.463623 
	C639.551086,688.205811 625.880920,695.510132 609.817505,695.705261 
	C605.251648,695.760681 600.586914,697.187866 596.173645,698.620911 
	C578.163635,704.469482 559.556824,708.063660 540.842834,708.906372 
	C515.309753,710.056213 492.531921,717.718994 471.740845,732.035156 
	C461.586975,739.026733 450.783417,743.886902 438.504883,746.164124 
	C415.046600,750.514832 392.342621,757.738403 370.222931,766.647278 
	C364.073608,769.123962 358.430908,772.832092 352.451691,775.763000 
	C338.853058,782.428711 324.679565,787.858887 309.340363,786.751770 
	C293.361115,785.598450 277.401001,785.263428 261.410492,785.021790 
	C252.176620,784.882263 243.219467,783.004578 234.543076,779.821533 
	C230.632523,778.386902 226.806808,776.566406 222.777069,775.645386 
	C215.781204,774.046387 210.581970,769.444885 205.371323,765.258484 
	C195.275375,757.147095 184.867462,750.200378 171.921539,747.368164 
	C156.734985,744.045654 143.217590,737.387573 131.268356,727.047363 
	C119.288483,716.680664 107.857475,705.812439 96.847687,694.461243 
	C94.579445,692.122681 91.802910,690.595520 88.789902,689.593750 
	C82.634163,687.547180 76.525551,685.336426 70.378380,683.313721 
	C54.221329,677.997192 38.621872,671.383606 23.159393,664.393433 
	C20.609240,663.240479 18.053850,662.438843 15.483333,663.659973 
	C13.015676,664.832275 10.527920,665.394958 7.833184,665.612061 
	C4.466888,665.883240 1.857500,667.405273 1.000000,671.000000 
M98.857910,269.359009 
	C96.319450,272.209747 93.795586,275.073639 91.240059,277.908997 
	C78.694893,291.827911 68.196541,306.975311 61.335442,324.615814 
	C52.623108,347.016052 50.158852,369.991394 54.560966,393.491241 
	C57.793934,410.749908 64.018303,427.277740 73.401833,442.022736 
	C81.380791,454.560608 91.249496,466.002594 101.873177,476.510071 
	C121.402817,495.826141 144.240158,510.687195 168.347916,523.538757 
	C189.788956,534.968750 212.139725,544.407104 235.538361,551.134033 
	C241.089706,552.730042 243.301331,556.086426 243.438278,561.624878 
	C243.540344,565.752625 244.203491,569.870728 244.694733,573.983826 
	C246.245316,586.966919 248.500626,599.857300 249.450439,612.923645 
	C249.993790,620.398560 250.792740,627.968994 258.571289,632.170044 
	C267.339355,636.905518 276.226868,637.234985 285.337799,633.255310 
	C291.958588,630.363342 297.522400,625.838806 303.390930,621.771667 
	C322.221252,608.721375 341.303436,596.019592 359.827606,582.549622 
	C367.514374,576.960144 375.414154,574.530945 384.765381,574.526917 
	C415.488129,574.513733 446.211273,575.589172 476.828247,570.852539 
	C496.647430,567.786438 516.547302,565.185059 535.947632,560.147095 
	C572.034607,550.776001 607.172852,538.777039 640.124573,520.905518 
	C661.572510,509.273224 681.167297,495.130981 699.093506,478.703461 
	C710.142761,468.577881 719.432617,456.840210 727.625916,444.274017 
	C740.242249,424.924042 748.800293,404.151794 750.637024,380.829437 
	C752.407837,358.343140 747.508606,337.295837 738.101868,317.054596 
	C725.774292,290.528229 706.971680,269.055603 684.429565,251.079346 
	C646.736206,221.020706 603.552002,201.546341 557.403564,188.409363 
	C532.017578,181.182800 506.284912,175.640625 480.073425,172.096420 
	C464.450134,169.983902 448.782837,167.999893 433.107269,167.645416 
	C411.837158,167.164429 390.531799,166.875153 369.215668,168.177444 
	C351.318695,169.270844 333.512787,170.687088 315.758484,173.208878 
	C285.935364,177.444901 256.816284,184.659851 228.144226,193.669708 
	C206.067215,200.607132 184.968369,209.965897 164.690628,221.163712 
	C140.892319,234.305634 118.243393,248.996078 98.857910,269.359009 
M432.642670,101.640068 
	C426.007111,100.726753 419.349945,100.637993 412.731689,101.606003 
	C399.393921,103.556808 386.083008,105.690201 372.752625,107.692368 
	C363.700714,109.051918 354.621063,110.232521 345.584076,111.681602 
	C343.289825,112.049492 340.557098,112.119102 339.244354,114.910278 
	C341.234711,118.340698 344.517456,118.466942 347.608063,118.289505 
	C351.748505,118.051781 355.864227,117.330894 359.981476,116.752731 
	C369.634399,115.397209 379.559631,114.641914 388.634399,118.113953 
	C397.321899,121.437813 406.226440,122.750435 415.129120,124.744255 
	C429.883850,128.048691 443.090118,123.817841 456.249573,118.331886 
	C458.283386,117.484016 461.128082,116.788132 460.956848,113.855316 
	C460.802979,111.219604 458.256104,110.240959 456.240448,109.129288 
	C449.138641,105.212471 441.066925,104.268356 432.642670,101.640068 
z"/>
<path fill="#000000" opacity="1.000000" stroke="none" 
	d="
M261.585693,342.877991 
	C265.249390,355.318451 262.392792,365.927734 254.058426,375.013245 
	C251.048889,378.294006 252.949356,380.056671 255.286148,381.826874 
	C261.732391,386.710266 264.963409,393.291870 266.522583,401.087952 
	C269.473083,415.841217 261.775848,428.248474 251.603180,434.224762 
	C244.885422,438.171387 237.532700,440.266754 229.786789,440.342834 
	C212.628510,440.511444 195.466217,440.280365 178.308151,440.459686 
	C174.044571,440.504242 172.519470,439.286560 172.539108,434.811554 
	C172.699127,398.326447 172.685898,361.840118 172.560379,325.354736 
	C172.545898,321.142181 173.613358,319.466492 178.145447,319.529938 
	C194.802353,319.763184 211.473145,319.289703 228.122116,319.721588 
	C243.381683,320.117432 257.270630,327.707123 261.585693,342.877991 
M194.635681,385.385315 
	C186.379944,385.417236 186.374542,385.417236 186.371597,393.668030 
	C186.368332,402.830963 186.510971,411.996735 186.318542,421.155548 
	C186.231293,425.309296 187.852798,426.735291 191.921738,426.679749 
	C204.081207,426.513641 216.245773,426.721222 228.405350,426.558594 
	C233.065140,426.496277 237.695236,425.535065 241.897308,423.440063 
	C244.973984,421.906128 248.075455,420.344818 249.914597,417.013184 
	C257.935883,402.482544 249.100159,387.822357 231.981110,386.252106 
	C219.832748,385.137726 207.723724,385.700897 194.635681,385.385315 
M186.376862,361.434540 
	C186.376862,362.266632 186.375793,363.098694 186.377029,363.930786 
	C186.388412,371.600952 186.388519,371.610962 194.186676,371.616058 
	C206.168472,371.623871 218.150696,371.676636 230.131943,371.596039 
	C239.478897,371.533173 247.914566,364.611115 248.595215,356.635162 
	C249.647507,344.303833 244.508820,336.392670 233.639893,334.511627 
	C219.288300,332.027893 204.775772,333.843018 190.340500,333.457550 
	C186.953812,333.367126 186.333694,335.637878 186.359467,338.486359 
	C186.425690,345.807953 186.378601,353.130554 186.376862,361.434540 
z"/>
<path fill="#000000" opacity="1.000000" stroke="none" 
	d="
M498.367493,400.999878 
	C498.366821,406.663574 498.135406,411.841064 498.442230,416.986450 
	C498.664856,420.720062 497.254791,423.410675 494.594025,425.681976 
	C482.151459,436.303406 467.833588,442.479401 451.396454,442.337616 
	C419.815948,442.065308 394.927399,422.831055 390.465240,390.235596 
	C388.184418,373.574524 390.678284,358.022430 400.027771,344.058319 
	C409.213409,330.338959 422.222076,322.137665 438.618195,319.035400 
	C455.825958,315.779633 471.549255,318.896820 486.061249,328.522766 
	C487.714172,329.619202 489.165558,331.015656 490.740662,332.233826 
	C496.750732,336.882050 496.156494,342.918152 489.440643,346.520111 
	C487.397034,347.616150 486.378143,346.377594 485.126617,345.298431 
	C476.918579,338.220947 467.860748,333.312164 456.749146,332.144501 
	C433.526276,329.704071 412.380646,341.759918 406.498566,362.883911 
	C400.109253,385.829498 405.435944,407.743347 423.706207,420.407898 
	C439.733521,431.517670 465.208588,430.876465 480.435822,419.115448 
	C482.722137,417.349609 483.723297,415.145416 483.657837,412.214050 
	C483.523926,406.220428 483.443542,400.215057 483.674896,394.227417 
	C483.840088,389.951050 482.308197,388.232147 477.904205,388.325653 
	C467.914459,388.537811 457.913422,388.229340 447.924408,388.458008 
	C443.714203,388.554413 442.496918,386.965363 442.554047,382.927338 
	C442.671234,374.639557 442.484741,374.627655 450.546631,374.625427 
	C464.705261,374.621521 478.865540,374.752136 493.021454,374.557983 
	C497.167572,374.501129 498.584900,375.901978 498.427979,380.015289 
	C498.167847,386.834351 498.363586,393.670807 498.367493,400.999878 
z"/>
<path fill="#000000" opacity="1.000000" stroke="none" 
	d="
M526.835999,375.459381 
	C528.324341,390.346558 530.906311,404.481506 537.391418,417.660492 
	C539.856995,422.670990 543.939331,426.042206 548.627563,428.642639 
	C553.250488,431.206848 563.502075,427.007202 568.074829,421.600128 
	C581.486633,405.741302 589.236938,386.846375 597.716980,368.238190 
	C605.976685,350.113678 611.399414,331.227295 615.342041,311.826721 
	C615.806763,309.539886 616.908264,307.927490 618.529236,306.399536 
	C620.630249,304.419128 622.890625,304.224854 625.416443,305.289886 
	C627.939087,306.353577 629.338745,308.057709 629.396545,310.989838 
	C629.536133,318.066376 627.508301,324.802124 626.035645,331.563690 
	C621.108337,354.186890 613.965820,376.091888 603.203796,396.693024 
	C597.342651,407.912689 590.986450,418.980286 582.000244,427.889313 
	C568.168091,441.602661 552.063171,446.919312 533.833557,435.362061 
	C522.596069,428.237701 518.221191,416.293060 515.666321,403.817322 
	C512.602539,388.856140 511.475922,373.680206 510.382202,358.446045 
	C509.341522,343.950867 510.054382,329.507874 509.672729,315.048706 
	C509.576447,311.401489 511.150024,308.646881 514.696472,307.210327 
	C517.286072,306.161407 519.202454,307.402344 521.006042,308.976685 
	C522.476501,310.260193 522.944885,312.171692 523.174927,313.908447 
	C523.761902,318.340118 524.109192,322.813110 524.341614,327.280518 
	C525.169678,343.192932 525.909851,359.109894 526.835999,375.459381 
z"/>
<path fill="#000000" opacity="1.000000" stroke="none" 
	d="
M352.851807,357.212860 
	C365.202240,384.774780 377.396515,411.988983 389.725983,439.504883 
	C384.738770,440.922791 380.752625,440.309814 376.806793,440.284088 
	C375.101837,440.272949 374.255981,439.157715 373.585358,437.636383 
	C370.636719,430.947052 367.359528,424.394501 364.628235,417.620270 
	C362.857391,413.228180 360.522827,411.180481 355.393341,411.279053 
	C338.073914,411.611938 320.742737,411.495483 303.418610,411.310608 
	C299.021912,411.263672 296.501617,412.380463 294.895630,416.927368 
	C292.469238,423.797241 289.033203,430.310089 286.035767,436.978943 
	C285.167206,438.911285 284.014954,440.466187 281.615082,440.361084 
	C277.848175,440.196075 274.012451,440.989685 269.911530,439.608551 
	C271.764374,432.355621 275.359650,425.976501 278.287964,419.371277 
	C291.082245,390.511993 304.065247,361.736328 316.987396,332.933746 
	C318.211700,330.204895 319.734924,327.582550 320.682495,324.763916 
	C321.981567,320.899597 324.185883,319.371948 328.415802,319.524017 
	C336.471588,319.813751 336.267059,319.650330 339.492340,327.284058 
	C343.694000,337.228668 348.276855,347.012238 352.851807,357.212860 
M329.500977,341.420166 
	C325.514740,345.827148 324.200348,351.613739 321.769348,356.792908 
	C316.133514,368.799927 310.979004,381.032196 305.567566,393.145569 
	C304.234192,396.130249 304.983887,397.590973 308.302582,397.592072 
	C322.440765,397.596710 336.578949,397.591431 350.717133,397.612213 
	C353.611359,397.616486 354.834595,396.403076 353.669250,393.576782 
	C352.028778,389.598083 350.361206,385.625336 348.537933,381.728271 
	C342.289551,368.373413 337.109894,354.524872 329.500977,341.420166 
z"/>
<path fill="#000000" opacity="1.000000" stroke="none" 
	d="
M303.519745,468.159698 
	C308.382782,465.409454 311.067627,460.511902 314.634430,456.468597 
	C316.273407,454.610626 317.959076,453.207825 320.307343,452.779419 
	C324.355072,452.040955 326.729034,454.487701 325.758484,458.491638 
	C324.715240,462.795593 323.403870,467.034576 322.084778,471.747528 
	C325.638824,471.387512 326.887299,468.771271 328.747345,467.084137 
	C330.719635,465.295135 332.572266,463.370880 334.430481,461.460266 
	C336.845612,458.977173 339.866119,458.498840 342.617126,460.110565 
	C345.421112,461.753326 344.602814,464.801605 343.766876,467.336731 
	C342.416412,471.432434 340.855713,475.460602 339.315521,479.491180 
	C338.663635,481.197144 337.957214,482.855560 338.323059,484.670990 
	C346.201385,487.122467 347.801239,486.229126 349.662476,478.766510 
	C350.594971,475.027649 352.662231,472.041473 356.481598,470.833557 
	C362.668335,468.876923 368.918549,468.875946 375.057098,471.067627 
	C377.987762,472.113983 379.862579,474.121613 379.250793,477.535095 
	C378.646576,480.906250 376.144440,481.483917 373.254761,481.437988 
	C371.281311,481.406647 369.306946,481.432007 367.782623,481.432007 
	C365.896606,479.290009 368.110046,477.818726 367.438080,475.892944 
	C363.059418,474.748596 362.141541,478.167358 361.570465,481.088135 
	C360.877106,484.634552 363.303345,485.670288 366.449097,485.637543 
	C371.447021,485.585480 376.446106,485.592102 381.444275,485.630035 
	C384.282959,485.651581 386.290436,484.829803 386.650696,481.589020 
	C387.429108,474.587006 394.228546,469.511017 401.692902,469.770996 
	C407.398590,469.969727 409.684448,467.289276 411.224548,462.410156 
	C414.150696,453.140076 414.417419,453.129181 424.948547,455.360596 
	C422.632843,462.949707 420.195496,470.467010 418.102325,478.078949 
	C417.458160,480.421356 414.533478,483.462952 418.631165,485.371155 
	C422.492615,487.169403 426.823029,484.966064 428.274780,480.811493 
	C428.711456,479.561920 428.947998,478.243866 429.341644,476.977509 
	C431.759857,469.198181 433.512177,468.278656 441.906403,470.457947 
	C442.846771,474.085968 440.647522,477.123505 439.848358,480.429688 
	C439.354889,482.471344 438.075104,485.087982 441.544403,485.434418 
	C444.248169,485.704376 447.612915,486.882080 448.660095,482.288788 
	C450.951111,472.239532 454.373016,469.645081 464.532410,469.624329 
	C472.363342,469.608307 480.211700,469.303009 488.019501,469.728455 
	C493.647339,470.035126 498.007141,468.563904 501.655914,464.219238 
	C502.968994,462.655762 504.342804,459.850647 507.290344,461.420502 
	C509.776855,462.744873 509.924133,464.779358 509.728149,467.680603 
	C509.360535,473.122406 512.092407,478.241852 512.897705,483.676788 
	C513.408813,487.126556 518.073120,484.638153 520.452698,486.669342 
	C520.038818,489.768646 517.728455,490.330841 515.126587,490.345581 
	C507.129395,490.390869 499.131836,490.393890 491.134552,490.371674 
	C488.123688,490.363342 485.792908,489.262024 485.806671,485.840332 
	C485.820648,482.375671 488.574738,482.717133 490.886688,482.613617 
	C492.547791,482.539276 494.164459,482.496521 495.760803,483.284332 
	C500.379181,485.563599 500.914368,482.980255 500.407440,478.881592 
	C497.699280,478.970581 495.325439,481.783691 492.319580,479.863678 
	C491.398956,478.335510 493.964447,477.648712 493.589142,475.989166 
	C493.213287,475.849030 492.774658,475.560516 492.323395,475.539246 
	C490.494049,475.453003 488.660919,475.428772 486.828979,475.418060 
	C479.000305,475.372345 479.000275,475.377045 477.231812,483.028442 
	C475.998871,488.362976 469.528198,492.946533 462.469482,491.093811 
	C453.854767,488.832672 445.529633,490.906281 437.137634,490.290619 
	C429.173401,489.706299 421.204895,491.172668 413.381134,490.235809 
	C405.076691,489.241364 396.690308,491.475891 388.440033,488.884247 
	C385.706543,488.025604 382.892273,490.591888 379.751190,490.463654 
	C373.430725,490.205597 366.921448,491.316467 360.805023,490.174957 
	C353.784241,488.864624 347.138275,489.144562 340.254242,490.299377 
	C337.016113,490.842560 333.588837,490.570587 330.279388,490.289459 
	C326.876617,490.000427 325.204865,488.324036 326.462189,484.539520 
	C327.426056,481.638428 329.379303,478.967926 329.112366,474.633606 
	C323.784790,479.048279 319.413483,483.266449 315.587128,488.001343 
	C313.873932,490.121307 312.030579,491.918427 309.360229,490.832001 
	C306.208191,489.549622 306.626343,486.826965 307.490021,484.028381 
	C308.835663,479.668243 309.912933,475.225281 310.043823,470.199799 
	C305.737244,475.350128 301.284576,480.387085 297.171906,485.687897 
	C294.083282,489.668854 290.600983,491.652130 285.217560,489.641235 
	C286.369507,481.431915 289.786743,473.816589 292.072723,465.914978 
	C294.940918,456.000977 295.214478,456.092255 285.026520,455.343048 
	C284.070465,455.272736 283.134460,454.930206 281.973511,454.664764 
	C281.992371,450.174652 283.695190,447.592834 288.381500,447.623657 
	C292.713318,447.652161 297.045898,447.588531 301.377411,447.633636 
	C307.073578,447.692963 308.427155,449.497009 306.977570,455.092163 
	C305.859497,459.407715 303.541656,463.393677 303.519745,468.159698 
M405.373199,481.789154 
	C405.588379,479.709625 408.044800,477.129181 404.743408,475.761353 
	C401.966431,474.610809 400.576660,476.885193 399.552002,479.107117 
	C398.639099,481.086731 397.473267,483.148682 400.132416,484.726959 
	C402.823547,486.324188 404.054077,484.566895 405.373199,481.789154 
M466.895844,475.901672 
	C463.183716,475.351807 458.574432,480.239838 459.894928,483.540955 
	C460.880493,486.004669 462.895203,486.212555 464.470795,484.165558 
	C466.166870,481.961975 467.328583,479.381775 466.895844,475.901672 
z"/>
<path fill="#000000" opacity="1.000000" stroke="none" 
	d="
M578.239380,286.154297 
	C583.717468,288.420074 587.185791,291.852051 587.712585,297.620728 
	C588.300293,304.055725 582.700806,308.612061 576.510437,306.811401 
	C572.874451,305.753754 569.907104,303.937256 568.141724,300.392212 
	C566.249573,296.592621 565.629395,292.701050 568.127686,289.119354 
	C570.434937,285.811615 574.027222,285.166016 578.239380,286.154297 
z"/>
<path fill="#000000" opacity="1.000000" stroke="none" 
	d="
M539.187134,290.790771 
	C543.279541,284.825348 548.522644,284.051422 554.246521,288.228394 
	C559.310242,291.923584 561.060059,299.682190 557.819946,304.073059 
	C554.281372,308.868439 545.133972,307.781952 541.091675,302.023712 
	C538.790039,298.745056 538.013977,295.105225 539.187134,290.790771 
z"/>
<path fill="#000000" opacity="1.000000" stroke="none" 
	d="
M433.988953,452.031738 
	C436.402924,451.123077 438.173828,449.515350 440.781799,450.279510 
	C444.471252,451.360596 447.095856,453.291016 447.274109,457.315765 
	C447.437836,461.011993 445.558807,463.749969 442.059631,464.904114 
	C438.140259,466.196808 434.796844,464.673401 432.519653,461.481567 
	C430.213531,458.249207 430.607117,454.978943 433.988953,452.031738 
z"/>
</svg>